# xmcd CD database file
#
# Track frame offsets:
#	150
#	19827
#	42542
#	62037
#	82287
#	108165
#	129425
#	148865
#	168982
#	189827
#	208647
#	228737
#	250215
#
# Disc length: 3614 seconds
#
# Revision: 0
# Processed by: cddbd v1.5.2PL0 Copyright (c) Steve Scherf et al.
# Submitted via: CDex 1.70beta2
#
DISCID=ba0e1c0d
DTITLE=Akira Jimbo - Pacifica
DYEAR=1997
DGENRE=Jazz
TTITLE0=Violet
TTITLE1=Sloppy Joe
TTITLE2=First Stride
TTITLE3=Blessing
TTITLE4=Who Cares!
TTITLE5=Rosary
TTITLE6=The Gates Of Love
TTITLE7=Rouge
TTITLE8=Sweet And Tart
TTITLE9=Dream Season
TTITLE10=Catalina Rain
TTITLE11=Wind Flower
TTITLE12=Land Of Innocence
EXTD=YEAR: 1997
EXTT0=
EXTT1=
EXTT2=
EXTT3=
EXTT4=
EXTT5=
EXTT6=
EXTT7=
EXTT8=
EXTT9=
EXTT10=
EXTT11=
EXTT12=
PLAYORDER=
